<svg width="168" height="24" viewBox="0 0 168 24" fill="none" xmlns="http://www.w3.org/2000/svg">
<path d="M0.78125 3.82031H6.08984V10.3125L11.6562 3.82031H18.7109L12.4531 10.3008L18.9922 21H12.4531L8.83203 13.9336L6.08984 16.8047V21H0.78125V3.82031ZM20.2583 3.82031H34.4848V7.48828H25.5786V10.2188H33.8403V13.7227H25.5786V17.1094H34.7427V21H20.2583V3.82031ZM35.3994 3.82031H41.2939L44.7627 9.62109L48.2314 3.82031H54.0908L47.4111 13.8047V21H42.0908V13.8047L35.3994 3.82031ZM54.1264 3.82031H70.2631V8.0625H64.8491V21H59.5405V8.0625H54.1264V3.82031ZM72.2675 21V3.82031H81.1152C82.7558 3.82031 84.0097 3.96094 84.8769 4.24219C85.7441 4.52344 86.4433 5.04688 86.9745 5.8125C87.5058 6.57031 87.7714 7.49609 87.7714 8.58984C87.7714 9.54297 87.5683 10.3672 87.162 11.0625C86.7558 11.75 86.1972 12.3086 85.4863 12.7383C85.0331 13.0117 84.412 13.2383 83.623 13.418C84.2558 13.6289 84.7167 13.8398 85.0058 14.0508C85.2011 14.1914 85.4823 14.4922 85.8495 14.9531C86.2245 15.4141 86.4745 15.7695 86.5995 16.0195L89.1659 21H83.1659L80.33 15.75C79.9706 15.0703 79.6503 14.6289 79.3691 14.4258C78.9863 14.1602 78.5527 14.0273 78.0683 14.0273H77.5995V21H72.2675ZM77.5995 10.7812H79.8378C80.08 10.7812 80.5488 10.7031 81.2441 10.5469C81.5956 10.4766 81.8808 10.2969 82.0995 10.0078C82.3261 9.71875 82.4394 9.38672 82.4394 9.01172C82.4394 8.45703 82.2636 8.03125 81.912 7.73438C81.5605 7.4375 80.9003 7.28906 79.9316 7.28906H77.5995V10.7812ZM100.967 18.1641H94.9203L94.0883 21H88.6625L95.1195 3.82031H100.909L107.366 21H101.811L100.967 18.1641ZM99.8539 14.4492L97.9555 8.27344L96.0687 14.4492H99.8539ZM119.589 13.9805L124.241 15.3867C123.929 16.6914 123.436 17.7812 122.765 18.6562C122.093 19.5312 121.257 20.1914 120.257 20.6367C119.265 21.082 117.999 21.3047 116.46 21.3047C114.593 21.3047 113.065 21.0352 111.878 20.4961C110.698 19.9492 109.679 18.9922 108.819 17.625C107.96 16.2578 107.53 14.5078 107.53 12.375C107.53 9.53125 108.284 7.34766 109.792 5.82422C111.308 4.29297 113.448 3.52734 116.214 3.52734C118.378 3.52734 120.077 3.96484 121.311 4.83984C122.554 5.71484 123.475 7.05859 124.077 8.87109L119.39 9.91406C119.225 9.39062 119.054 9.00781 118.874 8.76562C118.577 8.35938 118.214 8.04688 117.784 7.82812C117.354 7.60938 116.874 7.5 116.343 7.5C115.14 7.5 114.218 7.98438 113.577 8.95312C113.093 9.67188 112.85 10.8008 112.85 12.3398C112.85 14.2461 113.14 15.5547 113.718 16.2656C114.296 16.9688 115.108 17.3203 116.155 17.3203C117.171 17.3203 117.936 17.0352 118.452 16.4648C118.975 15.8945 119.354 15.0664 119.589 13.9805ZM126.374 3.82031H131.683V10.3125L137.249 3.82031H144.304L138.046 10.3008L144.585 21H138.046L134.425 13.9336L131.683 16.8047V21H126.374V3.82031ZM144.825 13.128C144.809 12.92 144.793 12.72 144.777 12.528C144.777 12.32 144.777 12.12 144.777 11.928C144.777 10.36 145.065 8.888 145.641 7.512C146.217 6.136 147.025 4.928 148.065 3.888C149.105 2.832 150.305 2.008 151.665 1.416C153.041 0.807999 154.521 0.503999 156.105 0.503999C157.641 0.503999 159.105 0.791999 160.497 1.368C161.889 1.944 163.121 2.776 164.193 3.864C165.281 4.952 166.121 6.264 166.713 7.8H164.001C163.265 6.312 162.193 5.136 160.785 4.272C159.393 3.392 157.833 2.952 156.105 2.952C154.985 2.952 153.921 3.152 152.913 3.552C151.921 3.936 151.017 4.48 150.201 5.184C149.401 5.872 148.745 6.696 148.233 7.656C147.721 8.6 147.401 9.64 147.273 10.776L150.153 10.728V13.128H144.825ZM156.105 23.256C154.585 23.256 153.129 22.968 151.737 22.392C150.345 21.832 149.105 21.008 148.017 19.92C146.929 18.832 146.081 17.512 145.473 15.96H148.185C148.681 16.968 149.337 17.84 150.153 18.576C150.969 19.296 151.889 19.856 152.913 20.256C153.937 20.656 155.001 20.856 156.105 20.856C157.241 20.856 158.313 20.656 159.321 20.256C160.329 19.856 161.233 19.304 162.033 18.6C162.833 17.88 163.481 17.056 163.977 16.128C164.489 15.2 164.809 14.2 164.937 13.128L161.193 13.224V10.728H167.385C167.417 10.92 167.441 11.112 167.457 11.304C167.473 11.48 167.481 11.656 167.481 11.832C167.481 13.4 167.185 14.88 166.593 16.272C166.017 17.648 165.209 18.864 164.169 19.92C163.145 20.96 161.945 21.776 160.569 22.368C159.193 22.96 157.705 23.256 156.105 23.256ZM151.161 15.96V7.8H153.609V10.344L157.161 7.8H161.097L157.497 10.344L160.905 15.96H158.121L155.625 11.736L153.609 13.2V15.96H151.161Z" fill="#00C471"/>
</svg>
